<?xml version="1.0" encoding="UTF-8" standalone="no"?>
<svg xmlns:rdf="http://www.w3.org/1999/02/22-rdf-syntax-ns#" xmlns="http://www.w3.org/2000/svg" height="33.6" width="116.31" version="1.1" xmlns:cc="http://creativecommons.org/ns#" xmlns:dc="http://purl.org/dc/elements/1.1/" viewBox="0 0 109.0368 31.500327">
<metadata>
<rdf:RDF>
<cc:Work rdf:about="">
<dc:format>image/svg+xml</dc:format>
<dc:type rdf:resource="http://purl.org/dc/dcmitype/StillImage"/>
<dc:title/>
</cc:Work>
</rdf:RDF>
</metadata>
<defs></defs>
<text style="letter-spacing:0px;word-spacing:0px;" font-weight="normal" xml:space="preserve" font-size="9.59430599px" font-style="normal" y="7.9317842" x="3.5398109" font-family="sans-serif" line-height="125%" fill="#ff0000"><tspan x="3.5398109" y="7.9317842">H</tspan></text>
<text style="letter-spacing:0px;word-spacing:0px;" font-weight="normal" xml:space="preserve" font-size="12.85816479px" font-style="normal" y="16.341255" x="34.43663" font-family="sans-serif" line-height="125%" fill="#000000"><tspan font-weight="bold" font-style="normal" font-stretch="normal" font-variant="normal" y="16.341255" x="34.43663" font-family="sans-serif">Cross</tspan></text>
<path stroke-linejoin="miter" d="m82.171,9.762-8.6719,8.2911-37.676,0-2.168,0-8.0274,7.9981-24.199,0,0,4.043,25.459,0,8.7012-8.3203,0.17578,0,39.668,0.0293,7.9981-8.0274,24.199,0,0-4.0137-25.459,0z" stroke-dashoffset="0" stroke="#000" stroke-linecap="square" stroke-miterlimit="4" stroke-dasharray="none" stroke-width="0.93750393" fill="#00F"/>
<text style="letter-spacing:0px;word-spacing:0px;" font-weight="normal" xml:space="preserve" font-size="9.59430599px" font-style="normal" y="24.342443" x="3.7655489" font-family="sans-serif" line-height="125%" fill="#ff0000"><tspan x="3.7655489" y="24.342443">L</tspan></text>
<path stroke-linejoin="miter" d="m82.149,30.036-8.6719-8.2911-37.676,0-2.168,0-8.0274-7.9981-24.199,0,0-4.043,25.459,0,8.7012,8.3203,0.17578,0,39.668-0.0293,7.9981,8.0274,24.199,0,0,4.0137-25.459,0z" stroke-dashoffset="0" stroke="#000" stroke-linecap="square" stroke-miterlimit="4" stroke-dasharray="none" stroke-width="0.93750393" fill="#00ff24"/>
<text style="letter-spacing:0px;word-spacing:0px;" font-weight="normal" xml:space="preserve" font-size="9.59430599px" font-style="normal" y="7.9899068" x="97.139786" font-family="sans-serif" line-height="125%" fill="#ff0000"><tspan x="97.139786" y="7.9899068">H</tspan></text>
<text style="letter-spacing:0px;word-spacing:0px;" font-weight="normal" xml:space="preserve" font-size="9.59430599px" font-style="normal" y="24.222378" x="97.365524" font-family="sans-serif" line-height="125%" fill="#ff0000"><tspan x="97.365524" y="24.222378">L</tspan></text>
</svg>
