<?xml version="1.0" encoding="UTF-8" standalone="no"?>
<svg xmlns:rdf="http://www.w3.org/1999/02/22-rdf-syntax-ns#" xmlns="http://www.w3.org/2000/svg" height="40.274" width="81.333" version="1.1" xmlns:cc="http://creativecommons.org/ns#" xmlns:dc="http://purl.org/dc/elements/1.1/" viewBox="0 0 76.250082 37.756564">
<metadata>
<rdf:RDF>
<cc:Work rdf:about="">
<dc:format>image/svg+xml</dc:format>
<dc:type rdf:resource="http://purl.org/dc/dcmitype/StillImage"/>
<dc:title/>
</cc:Work>
</rdf:RDF>
</metadata>
<defs></defs>
<text style="letter-spacing:0px;word-spacing:0px;" font-weight="normal" xml:space="preserve" font-size="9.59430599px" font-style="normal" y="14.188025" x="3.5398109" font-family="sans-serif" line-height="125%" fill="#ff0000"><tspan x="3.5398109" y="14.188025">H</tspan></text>
<text style="letter-spacing:0px;word-spacing:0px;" font-weight="normal" xml:space="preserve" font-size="12.85816479px" font-style="normal" y="10.480667" x="16.350479" font-family="sans-serif" line-height="125%" fill="#000000"><tspan font-weight="bold" font-style="normal" font-stretch="normal" font-variant="normal" y="10.480667" x="16.350479" font-family="sans-serif">Cross</tspan></text>
<path stroke-linejoin="miter" d="m57.243,16.018-5.9953,8.291-26.047,0-1.4988,0-5.5497,7.9981-16.73,0,0,4.043,17.601,0,6.0155-8.3203,0.12153,0,27.424,0.0293,5.5294-8.0274,16.73,0,0-4.0137-17.601,0z" stroke-dashoffset="0" stroke="#000" stroke-linecap="square" stroke-miterlimit="4" stroke-dasharray="none" stroke-width="0.93750393" fill="#00F"/>
<text style="letter-spacing:0px;word-spacing:0px;" font-weight="normal" xml:space="preserve" font-size="9.59430599px" font-style="normal" y="30.598684" x="3.7655489" font-family="sans-serif" line-height="125%" fill="#ff0000"><tspan x="3.7655489" y="30.598684">L</tspan></text>
<path stroke-linejoin="miter" d="m57.227,36.292-5.9953-8.2911-26.047,0-1.4988,0-5.5497-7.9981-16.73,0,0-4.043,17.601,0,6.0155,8.3203,0.12153,0,27.424-0.0293,5.5294,8.0274,16.73,0,0,4.0137-17.601,0z" stroke-dashoffset="0" stroke="#000" stroke-linecap="square" stroke-miterlimit="4" stroke-dasharray="none" stroke-width="0.93750393" fill="#00ff24"/>
<text style="letter-spacing:0px;word-spacing:0px;" font-weight="normal" xml:space="preserve" font-size="9.59430599px" font-style="normal" y="14.246148" x="65.264656" font-family="sans-serif" line-height="125%" fill="#ff0000"><tspan x="65.264656" y="14.246148">H</tspan></text>
<text style="letter-spacing:0px;word-spacing:0px;" font-weight="normal" xml:space="preserve" font-size="9.59430599px" font-style="normal" y="30.478619" x="65.490395" font-family="sans-serif" line-height="125%" fill="#ff0000"><tspan x="65.490395" y="30.478619">L</tspan></text>
</svg>
