<?xml version="1.0" encoding="UTF-8" standalone="no"?>
<svg xmlns:rdf="http://www.w3.org/1999/02/22-rdf-syntax-ns#" xmlns="http://www.w3.org/2000/svg" height="59.082" width="100.89" version="1.1" xmlns:cc="http://creativecommons.org/ns#" xmlns:dc="http://purl.org/dc/elements/1.1/" viewBox="-252 400.9 100.89405 59.082348">
<metadata>
<rdf:RDF>
<cc:Work rdf:about="">
<dc:format>image/svg+xml</dc:format>
<dc:type rdf:resource="http://purl.org/dc/dcmitype/StillImage"/>
<dc:title/>
</cc:Work>
</rdf:RDF>
</metadata>
<path stroke-linejoin="round" d="m-199.56,458.48-29.045,0,0-56.082,29.045,0s26.365,2.5998,26.365,27.715c0,25.114-26.365,28.367-26.365,28.367z" stroke="#000" stroke-width="3" fill="none"/>
<path d="m-250.99,414.96,20.255,0m-20.255,29.887,20.255,0m68.948-15.083,9.6635,0" stroke="#000" stroke-linecap="round" stroke-width="2" fill="none"/>
<text style="letter-spacing:0px;word-spacing:0px;" font-weight="normal" xml:space="preserve" transform="scale(0.99488292,1.0051434)" font-size="14.73635292px" font-style="normal" y="433.20636" x="-226.31" font-family="sans-serif" line-height="125%" fill="#0000ff"><tspan font-weight="bold" font-style="normal" font-stretch="normal" font-variant="normal" y="433.20636" x="-226.31" font-family="sans-serif">NAND</tspan></text>
<path d="m-166.84,435.15c-2.9,0-5.3-2.4-5.3-5.3s2.4-5.3,5.3-5.3,5.3,2.4,5.3,5.3-2.4,5.3-5.3,5.3zm0-8.6c-1.8,0-3.3,1.5-3.3,3.3s1.5,3.3,3.3,3.3,3.3-1.5,3.3-3.3-1.5-3.3-3.3-3.3z"/>
</svg>
