<?xml version="1.0" encoding="UTF-8" standalone="no"?>
<svg
   xmlns:dc="http://purl.org/dc/elements/1.1/"
   xmlns:cc="http://creativecommons.org/ns#"
   xmlns:rdf="http://www.w3.org/1999/02/22-rdf-syntax-ns#"
   xmlns:svg="http://www.w3.org/2000/svg"
   xmlns="http://www.w3.org/2000/svg"
   xmlns:sodipodi="http://sodipodi.sourceforge.net/DTD/sodipodi-0.dtd"
   xmlns:inkscape="http://www.inkscape.org/namespaces/inkscape"
   viewBox="-252 400.9 100.89405 59.082348"
   width="100.89452"
   height="59.081997"
   id="svg2"
   version="1.1"
   inkscape:version="0.48.5 r10040"
   sodipodi:docname="AND_exp.svg">
  <metadata
     id="metadata14">
    <rdf:RDF>
      <cc:Work
         rdf:about="">
        <dc:format>image/svg+xml</dc:format>
        <dc:type
           rdf:resource="http://purl.org/dc/dcmitype/StillImage" />
        <dc:title />
      </cc:Work>
    </rdf:RDF>
  </metadata>
  <defs
     id="defs12" />
  <sodipodi:namedview
     pagecolor="#ffffff"
     bordercolor="#666666"
     borderopacity="1"
     objecttolerance="10"
     gridtolerance="10"
     guidetolerance="10"
     inkscape:pageopacity="0"
     inkscape:pageshadow="2"
     inkscape:window-width="1912"
     inkscape:window-height="1025"
     id="namedview10"
     showgrid="false"
     showguides="false"
     inkscape:zoom="13.269066"
     inkscape:cx="73.956733"
     inkscape:cy="28.669673"
     inkscape:window-x="0"
     inkscape:window-y="27"
     inkscape:window-maximized="1"
     inkscape:current-layer="svg2"
     fit-margin-top="0"
     fit-margin-left="0"
     fit-margin-right="0"
     fit-margin-bottom="0" />
  <path
     style="fill:none;stroke:#000000;stroke-width:3;stroke-linejoin:round"
     inkscape:connector-curvature="0"
     id="path6"
     d="m -199.56007,458.48234 -29.04492,0 0,-56.08235 29.04492,0 c 0,0 26.36534,2.59982 26.36534,27.71489 0,25.11358 -26.36534,28.36746 -26.36534,28.36746 z" />
  <path
     style="fill:none;stroke:#000000;stroke-width:2;stroke-linecap:round"
     inkscape:connector-curvature="0"
     id="path8"
     d="m -250.98623,414.96052 20.25503,0 m -20.25503,29.88664 20.25503,0 m 68.94813,-15.08251 9.66347,0"
     sodipodi:nodetypes="cccccc" />
  <text
     xml:space="preserve"
     style="font-size:14.73635292px;font-style:normal;font-weight:normal;line-height:125%;letter-spacing:0px;word-spacing:0px;fill:#0000ff;fill-opacity:1;stroke:none;font-family:sans-serif"
     x="-226.31"
     y="433.20636"
     id="text4142-5"
     sodipodi:linespacing="125%"
     transform="scale(0.99488292,1.0051434)"><tspan
       sodipodi:role="line"
       id="tspan4144-6"
       x="-226.31"
       y="433.20636"
       style="font-style:normal;font-variant:normal;font-weight:bold;font-stretch:normal;font-family:sans-serif;-inkscape-font-specification:sans-serif Bold">NAND</tspan></text>
  <path
     inkscape:connector-curvature="0"
     d="m -166.83823,435.15469 c -2.90001,0 -5.30003,-2.40001 -5.30003,-5.30003 0,-2.90002 2.40002,-5.30003 5.30003,-5.30003 2.90002,0 5.30004,2.40001 5.30004,5.30003 0,2.90002 -2.40002,5.30003 -5.30004,5.30003 z m 0,-8.60005 c -1.80001,0 -3.30001,1.50001 -3.30001,3.30002 0,1.80001 1.5,3.30002 3.30001,3.30002 1.80002,0 3.30002,-1.50001 3.30002,-3.30002 0,-1.80001 -1.5,-3.30002 -3.30002,-3.30002 z"
     id="path2997" />
</svg>
