<svg xmlns="http://www.w3.org/2000/svg" height="26.936mm" width="31.264mm" version="1.1" viewBox="0 0 110.77966 95.443106">
<g transform="translate(-307.7 -476.07)">
<path d="m358.36 561.84c-1.4016-2.4042-3.5744-4.7584-7.6917-8.3328-2.2304-1.936-3.5872-3.0112-11.312-8.961-6.0544-4.6645-9.0752-7.2522-12.576-10.774-3.4986-3.5221-5.5552-6.3274-7.3194-9.985-1.1264-2.336-1.9008-4.5866-2.3829-6.9248-0.6112-2.9707-0.6944-3.9765-0.6912-8.3509 0.004-5.7397 0.19414-6.6944 2.0843-10.524 1.4048-2.8437 2.4715-4.3413 4.6933-6.5909 2.1579-2.1835 3.5584-3.1754 6.5877-4.6688 3.3653-1.6597 5.7994-2.0949 10.814-1.9339 3.8965 0.12587 5.3226 0.512 8.4117 2.2848 4.8618 2.7893 8.6346 7.2672 9.6789 11.488 0.17067 0.69013 0.34667 1.2555 0.39147 1.2555s0.4384-0.80747 0.87466-1.7941c1.4848-3.3546 2.864-5.4016 5.0549-7.5072 6.7082-6.449 17.284-7.6149 25.836-2.8501 3.4922 1.9456 6.3338 4.7786 8.5354 8.5098 1.7333 2.9365 2.6197 6.8373 2.7712 12.195 0.21866 7.7621-1.2053 13.141-4.9952 18.874-1.504 2.2752-2.6165 3.6533-4.7029 5.825-3.3664 3.5061-6.4021 6.0832-13.569 11.518-4.5226 3.4293-7.2032 5.6341-11.083 9.12-3.1093 2.7925-7.9264 7.6544-8.3904 8.4672-0.20267 0.3552-0.38613 0.64533-0.40747 0.64533-0.0213 0-0.29653-0.44266-0.61226-0.98453z" stroke="#000" stroke-width="3.2" fill="#f00"/>
<text style="word-spacing:0;letter-spacing:0" font-family="sans-serif" font-size="29.312px" letter-spacing="0" line-height="0%" word-spacing="0" y="564.14154" x="371.82687" font-weight="400" fill="#0000ff">
<tspan font-size="16.75px" y="564.14154" x="371.82687" font-weight="700" fill="#0000ff">Xms</tspan>
</text>
<path stroke-linejoin="round" d="m345.5 538.89h8.2143v-33.571h10.357v33.571h8.5714" stroke="#00f" stroke-linecap="round" stroke-width="2" fill="none"/>
</g>
</svg>
