<svg xmlns="http://www.w3.org/2000/svg" height="271.6mm" width="225.92mm" version="1.1" viewBox="0 0 225.92043 271.59882">
<g transform="translate(-3.5604 -2.2345)">
<g fill="none" transform="translate(27.698 28.348)">
<rect ry="26.151" height="91.47" width="133.8" stroke="#040404" y="71.726" x="21.923" stroke-width="4"/>
<path stroke-width="3" d="m23.057 106.88 51.782-0.38v-17.009h20.033v17.389h45.358v-17.767h13.607" stroke="#000"/>
<path stroke-width="3" d="m24.007 139.95h27.781l0.18899-17.387h28.348v17.387h42.333v-17.954l31.75 0.18899" stroke="#000"/>
</g>
<text style="word-spacing:0;letter-spacing:0" stroke-width="2.5763" font-size="42.06px" y="36.188278" x="53.379265" font-weight="700" line-height="125%" fill="#000000">
<tspan y="36.188278" x="53.379265">Logic</tspan>
<tspan y="36.188278" x="53.379265"/>
</text>
<g fill="#00f">
<text style="word-spacing:0;letter-spacing:0" font-size="42.06px" line-height="125%" y="83.921326" x="13.198413" stroke-width="2.5763">
<tspan stroke-width="2.5763" y="83.921326" x="13.198413" font-weight="700" fill="#000000">Analyzer</tspan>
</text>
<text style="word-spacing:0;letter-spacing:0" font-size="35.474px" line-height="125%" y="227.6821" x="3.1874192" stroke-width="2.1728">
<tspan stroke-width="2.1728" y="227.6821" x="3.1874192" font-weight="700" fill="#000000">32ch/Async</tspan>
</text>
<text style="word-spacing:0;letter-spacing:0" font-size="42.06px" line-height="125%" y="271.23981" x="43.470112" stroke-width="2.5763">
<tspan stroke-width="2.5763" y="271.23981" x="43.470112" font-weight="700" fill="#000000">FT245</tspan>
</text>
</g>
</g>
<flowRoot style="word-spacing:0px;letter-spacing:0px" transform="matrix(.26459 0 0 .26459 -2.7285 -.0030880)" xml:space="preserve" font-size="40px" line-height="1.25" font-family="sans-serif" fill="#000000"><flowRegion><rect y="-382.77" width="2083.5" height="2583.7" x="-578.5"/></flowRegion><flowPara/></flowRoot>
</svg>
