<svg xmlns="http://www.w3.org/2000/svg" height="193.31mm" width="395.67mm" version="1.1" viewBox="0 0 395.67379 193.31215">
<g transform="translate(-.83181 -2.2325)">
<g transform="translate(17.124 28.348)" fill="none">
<rect ry="26.151" height="91.47" width="133.8" stroke="#040404" y="71.726" x="21.923" stroke-width="4"/>
<path d="m23.057 106.88 51.782-0.38v-17.009h20.033v17.389h45.358v-17.767h13.607" stroke="#000" stroke-width="3"/>
<path d="m24.007 139.95h27.781l0.18899-17.387h28.348v17.387h42.333v-17.954l31.75 0.18899" stroke="#000" stroke-width="3"/>
</g>
<text style="word-spacing:0;letter-spacing:0" font-weight="700" font-size="42.06px" line-height="125%" y="36.188278" x="42.807343" stroke-width="2.5763" fill="#000000">
<tspan y="36.188278" x="42.807343">Logic</tspan>
<tspan y="36.188278" x="42.807343"/>
</text>
<text style="word-spacing:0;letter-spacing:0" font-size="42.06px" line-height="125%" y="83.921326" x="2.6264381" stroke-width="2.5763" fill="#0000ff">
<tspan stroke-width="2.5763" y="83.921326" x="2.6264381" font-weight="700" fill="#000000">Analyzer</tspan>
</text>
<path d="m272.93 175.48a30.451 30.451 0 0 1 -5.3035 -2.0207c-3.3654-1.7578-8.3434-6.7859-10.144-10.241l-1.3922-2.6718-4.2868-0.11529c-3.4255-0.0905-4.8202-0.31321-6.9361-1.1018-7.4619-2.7845-13.063-8.5512-15.332-15.785-1.0892-3.4806-1.1519-9.0896-0.1352-12.488 0.37558-1.262 0.63101-2.3288 0.5634-2.3663-5.3586-3.1025-10.086-9.1947-11.744-15.132-0.81629-2.9222-0.65107-8.7866 0.33555-11.957 1.4599-4.6851 4.8403-9.5153 8.709-12.44 1.0842-0.81896 1.2595-1.1318 0.89142-1.5725-0.89394-1.0768-2.4139-5.7642-2.6568-8.2032-0.83385-8.3133 5.4963-17.218 14.06-19.782l2.2536-0.67611-0.23788-2.5792c-1.1043-11.846 10.101-22.243 22.015-20.425 2.2937 0.35047 3.1901 0.36288 3.2953 0.04431 0.30547-0.91148 3.2202-4.2869 4.8728-5.6366 2.2786-1.863 6.3402-3.731 9.0846-4.1742 7.3317-1.1919 15.978 3.8862 19.754 11.596l1.5124 3.0924 0.10525 56c0.11263 60.219 0.15284 58.844-1.8755 64.253-4.0515 10.807-16.366 17.268-27.409 14.381zm54.58 0.19243c-7.3217-1.5876-14.338-7.6022-16.927-14.508-2.0683-5.5163-2.0107-3.5307-1.898-64.138l0.10011-56.22 1.5299-3.0875c3.7811-7.6372 12.362-12.748 19.476-11.604 2.8045 0.45072 5.1983 1.4023 7.7624 3.0725 2.161 1.4098 5.4162 4.7576 6.1198 6.2951 0.38561 0.84378 0.55587 0.88637 2.4039 0.58824 1.0918-0.17561 3.3103-0.29544 4.9329-0.26262 10.449 0.2031 19.281 10.134 18.309 20.583l-0.24284 2.6192 1.277 0.26528c4.963 1.0267 10.657 5.629 13.071 10.559 1.9606 3.9964 2.479 7.5621 1.6526 11.361-0.3581 1.6376-1.1068 3.8862-1.6677 5.0005l-1.0216 2.0283 1.2971 0.9766c3.8036 2.872 7.1915 7.7198 8.6689 12.4 0.9941 3.155 1.1518 8.9743 0.32306 11.957-1.4523 5.2083-5.4938 10.892-9.8333 13.815-0.98406 0.66368-1.8429 1.247-1.9106 1.2971-0.0675 0.0533 0.18792 1.1243 0.5659 2.3864 1.0141 3.3954 0.9515 9.0095-0.13766 12.488-2.2586 7.199-7.9077 13.016-15.332 15.785-2.1159 0.78877-3.5106 1.0116-6.9361 1.1018l-4.2869 0.1153-1.3922 2.6692c-1.7979 3.4556-6.7784 8.4862-10.136 10.241-4.9079 2.5616-10.522 3.3504-15.768 2.2161z" stroke="#000" stroke-width="2.504" fill="#faa"/>
<path stroke-width="2.504" stroke="#000" d="m272.57 177.07a30.451 30.451 0 0 1 -5.301 -2.0232c-3.3654-1.7578-8.3434-6.7834-10.146-10.241l-1.3897-2.6693-4.2869-0.1153c-3.4255-0.0905-4.8202-0.31319-6.9361-1.1018-7.462-2.7845-13.063-8.5512-15.332-15.788-1.0918-3.4781-1.1519-9.0896-0.13766-12.485 0.37814-1.2645 0.63102-2.3287 0.56588-2.3663-5.3586-3.1049-10.086-9.1947-11.744-15.134-0.81886-2.9197-0.65108-8.7841 0.33307-11.954 1.4598-4.6875 4.8428-9.5153 8.7115-12.442 1.0817-0.81629 1.2595-1.1268 0.89142-1.57-0.89643-1.0768-2.4138-5.7642-2.6593-8.2057-0.83135-8.3133 5.4988-17.218 14.063-19.782l2.2536-0.67609-0.24036-2.5741c-1.1018-11.852 10.104-22.248 22.015-20.428 2.2962 0.35046 3.1901 0.36288 3.2978 0.04431 0.30302-0.91396 3.2202-4.2869 4.8728-5.639 2.2762-1.8605 6.3402-3.7285 9.0846-4.1742 7.3292-1.1895 15.978 3.8887 19.752 11.599l1.5149 3.0924 0.10524 55.997c0.11263 60.222 0.15018 58.844-1.878 64.258-4.049 10.805-16.364 17.265-27.409 14.378zm10.329-6.0121c6.1348-1.6351 10.607-6.255 12.074-12.47 0.38561-1.6277 0.49332-14.699 0.49332-58.924v-56.837l-1.1518-2.0783c-1.4398-2.5917-3.5983-4.5648-6.4603-5.9045-3.1375-1.4673-7.2216-1.4348-10.174 0.07981-2.7519 1.4147-4.8578 3.6508-6.4428 6.8359-0.78122 1.57-1.7178 2.842-2.3513 3.1951-0.96655 0.53857-1.232 0.50842-3.3378-0.38062-3.3954-1.4348-8.113-1.3822-11.18 0.12063a12.605 12.605 0 0 0 -6.2125 6.7858c-0.71619 1.8906-0.84884 2.8996-0.71867 5.4638 0.0927 1.8304 0.42065 3.6307 0.78379 4.3119 0.34302 0.64148 1.1744 2.3387 1.848 3.771 3.5958 7.6598 13.972 12.275 21.993 9.7832 3.3128-1.0267 5.7843-2.7143 8.9869-6.1348 2.186-2.3337 2.9648-2.9196 3.8737-2.9196 2.5591 0 3.8938 2.3788 2.6668 4.745-1.1694 2.2587-6.0848 6.7208-9.2073 8.3584l-2.9047 1.5249 0.96154 0.59093c0.52837 0.32562 2.4665 2.1033 4.3019 3.9564 4.1416 4.1666 6.0772 7.5971 6.4854 11.491 0.32554 3.0624 0.10524 3.2953-2.7244 2.8721-1.6877-0.25287-1.7653-0.33094-3.6283-3.6609-3.8386-6.861-9.5628-11.361-17.809-13.992-4.8202-1.5374-7.9828-2.8671-10.111-4.2518-2.7795-1.8029-6.4503-5.7392-7.9152-8.4836l-1.2946-2.4239-1.6301 0.25021c-2.4915 0.38064-6.3652 2.4038-7.7023 4.0265-2.2661 2.7394-2.9197 4.6374-2.9422 8.5186-0.0248 4.019 0.6185 5.8594 3.0624 8.7591 2.2586 2.6818 1.8129 4.352-1.6326 6.1348-2.6592 1.3721-6.3251 4.8778-7.492 7.1614-1.9632 3.8387-2.499 8.6414-1.4223 12.761 1.3371 5.1232 4.1692 8.5211 9.0821 10.892 4.2819 2.0708 4.4321 2.529 2.4539 7.5997-1.2595 3.2402-1.277 9.1222-0.0373 12.49 3.105 8.421 12.069 12.62 21.509 10.076a32.272 32.272 0 0 0 5.947 -2.3888c9.7882-5.3937 12.69-14.02 8.2883-24.617-2.8346-6.8309-9.3149-10.875-16.94-10.574-2.0959 0.0798-2.3989-0.008-3.2477-0.99407-1.1919-1.3822-1.1869-2.6668 0.0123-4.0565 0.91646-1.0667 1.0642-1.1017 4.6199-1.0692 11.268 0.10032 19.549 6.7984 22.736 18.39 1.0091 3.6809 1.0867 9.1146 0.17787 12.507-1.8254 6.811-7.3994 13.221-14.658 16.862-2.3813 1.1919-2.4039 1.4473-0.40816 4.6074 2.1835 3.4504 6.3026 6.4603 10.049 7.3443 2.2636 0.53057 7.1414 0.47557 9.3299-0.1073zm44.251 6.2025c-7.3192-1.5851-14.338-7.5997-16.927-14.508-2.0683-5.5163-2.0082-3.5307-1.898-64.135l0.10258-56.223 1.5274-3.0849c3.7836-7.6372 12.365-12.748 19.479-11.604 2.802 0.45072 5.1983 1.3997 7.7599 3.07 2.1635 1.4122 5.4162 4.7576 6.1223 6.2976 0.38559 0.84378 0.55339 0.88637 2.4038 0.58826 1.0918-0.17561 3.3103-0.29546 4.9304-0.26264 10.452 0.20044 19.283 10.131 18.312 20.583l-0.24543 2.6192 1.277 0.26262c4.963 1.0291 10.66 5.6315 13.073 10.562 1.9581 3.9964 2.4765 7.5621 1.6501 11.361-0.35562 1.6351-1.1068 3.8863-1.6677 5.0005l-1.0191 2.0283 1.2971 0.9766c3.8011 2.8696 7.1915 7.7198 8.6664 12.4 0.9966 3.1551 1.1519 8.9744 0.32554 11.954-1.4523 5.2083-5.4963 10.892-9.8332 13.817a214.09 214.09 0 0 0 -1.9106 1.297c-0.0675 0.0531 0.18771 1.1218 0.56339 2.3864 1.0166 3.3954 0.95403 9.0069-0.13519 12.485-2.2586 7.2015-7.9077 13.018-15.335 15.788-2.1159 0.78878-3.5081 1.0117-6.9361 1.1018l-4.2869 0.11529-1.3897 2.6693c-1.8004 3.4555-6.7809 8.4836-10.139 10.239-4.9079 2.5641-10.522 3.3528-15.768 2.2161zm12.215-7.1365c4.7075-2.201 7.4044-5.3961 9.3375-11.07 1.3171-3.8737 1.9656-4.2694 5.8018-3.5482 3.468 0.65124 7.795 0.3558 10.68-0.73376 4.4046-1.6626 8.1956-5.6641 9.6905-10.226 0.8414-2.5616 0.96156-8.401 0.22536-10.812l-0.48576-1.6026-5.4036-0.0355c-5.6591-0.0443-9.8758-0.66365-14.168-2.0908-2.2336-0.74086-2.7945-0.78345-5.3711-0.40016-1.5825 0.23513-3.8436 0.78878-5.023 1.227-4.8027 1.7954-9.1722 6.1999-10.935 11.023-0.93398 2.5591-1.8855 3.4806-3.5907 3.4806-1.4048 0-3.0374-1.5851-3.0374-2.9473 0-0.56339 0.38809-1.9381 0.85886-3.0549 2.8946-6.836 8.5787-12.337 15.109-14.616l2.0283-0.70891-1.6852-2.1735c-2.3688-3.0624-3.5357-5.2334-4.7276-8.7991-1.853-5.5238-1.8379-14.308 0.0222-16.166 1.1844-1.1793 3.145-1.2244 4.347-0.09499 0.84636 0.79409 0.87644 1.0191 0.66608 5.5839-0.17028 3.7535-0.0755 5.296 0.45072 7.3067 1.5425 5.8744 5.927 11.443 10.765 13.667 4.1942 1.9281 7.6272 2.5366 14.388 2.5466 5.5439 0.008 6.0222-0.0531 8.1556-1.0291 2.5992-1.1895 6.0848-4.4622 7.3167-6.8735 2.5967-5.0832 2.5942-11.546-0.004-16.634-1.1393-2.226-4.7902-5.7392-7.4169-7.1365-1.1865-0.63083-2.3734-1.4249-2.6388-1.7605-0.87642-1.1268-0.55843-2.6292 0.93151-4.3995 2.4414-2.8997 3.0849-4.7401 3.0624-8.7591-0.0248-3.8812-0.67608-5.7792-2.9422-8.5186-1.3321-1.6151-5.2084-3.6458-7.6773-4.024l-1.6076-0.24487-1.7303 2.6718c-2.4264 3.7409-6.7133 7.9051-9.5879 9.3048-3.0098 1.4673-7.6422 1.8004-11.741 0.84111-3.4255-0.80119-9.0645-3.418-9.6279-4.4696-0.70112-1.3071-0.49332-2.782 0.5358-3.8086 1.217-1.217 2.5741-1.2194 4.66-0.0082 4.3194 2.5015 10.201 3.3104 13.424 1.848 2.1359-0.97155 4.9479-3.781 6.9887-6.9937 2.777-4.3645 3.2227-5.7091 3.2227-9.7106 0-3.0749-0.14279-3.8261-1.0918-5.7567a13.088 13.088 0 0 0 -6.1248 -5.9546c-2.6292-1.212-8.1381-1.1869-10.73 0.04431-1.0141 0.48357-2.0783 0.8766-2.3688 0.8766-1.0792 0-2.2762-1.2771-3.408-3.6359-2.9823-6.2175-8.8642-9.2097-14.821-7.542-4.1617 1.1668-8.143 5.003-9.1822 8.8542-0.63102 2.3387-0.30796 113.67 0.33555 115.95 1.6827 5.9746 5.9771 10.342 11.846 12.052 1.0993 0.32031 3.2677 0.47114 5.7292 0.39839 3.463-0.10299 4.2869-0.27062 6.5505-1.3272z"/>
</g>
</svg>
