<?xml version="1.0" encoding="UTF-8" standalone="no"?>
<svg
   xmlns:dc="http://purl.org/dc/elements/1.1/"
   xmlns:cc="http://creativecommons.org/ns#"
   xmlns:rdf="http://www.w3.org/1999/02/22-rdf-syntax-ns#"
   xmlns:svg="http://www.w3.org/2000/svg"
   xmlns="http://www.w3.org/2000/svg"
   xmlns:sodipodi="http://sodipodi.sourceforge.net/DTD/sodipodi-0.dtd"
   xmlns:inkscape="http://www.inkscape.org/namespaces/inkscape"
   width="101.13864"
   height="51.743992"
   version="1"
   id="svg2"
   inkscape:version="0.48.5 r10040"
   sodipodi:docname="XNOR_exp.svg">
  <metadata
     id="metadata14">
    <rdf:RDF>
      <cc:Work
         rdf:about="">
        <dc:format>image/svg+xml</dc:format>
        <dc:type
           rdf:resource="http://purl.org/dc/dcmitype/StillImage" />
        <dc:title />
      </cc:Work>
    </rdf:RDF>
  </metadata>
  <defs
     id="defs12" />
  <sodipodi:namedview
     pagecolor="#ffffff"
     bordercolor="#666666"
     borderopacity="1"
     objecttolerance="10"
     gridtolerance="10"
     guidetolerance="10"
     inkscape:pageopacity="0"
     inkscape:pageshadow="2"
     inkscape:window-width="1912"
     inkscape:window-height="1025"
     id="namedview10"
     showgrid="false"
     showguides="true"
     inkscape:guide-bbox="true"
     inkscape:zoom="13.373874"
     inkscape:cx="53.974273"
     inkscape:cy="22.313868"
     inkscape:window-x="0"
     inkscape:window-y="27"
     inkscape:window-maximized="1"
     inkscape:current-layer="svg2"
     fit-margin-top="0"
     fit-margin-left="0"
     fit-margin-right="0"
     fit-margin-bottom="0" />
  <path
     style="fill:none;stroke:#000000;stroke-width:3;stroke-linecap:round;stroke-linejoin:round"
     inkscape:connector-curvature="0"
     id="path6"
     d="m 46.271233,50.243993 -24.02209,0 c 0,0 8.007363,-11.224646 8.202919,-24.813068 C 30.647618,11.843818 22.05489,1.6038589 22.05489,1.6038589 L 46.415944,1.5 C 58.672086,2.0140357 73.832886,15.602457 78.886051,26.219726 70.282894,44.033495 54.566716,49.914011 46.271233,50.243993 Z" />
  <path
     style="fill:none;stroke:#000000;stroke-width:2;stroke-linecap:round"
     inkscape:connector-curvature="0"
     id="path8"
     d="m 1.0142425,12.924476 26.2841545,0 m -26.0664356,25.827993 24.8735446,0 m 62.383245,-12.211963 11.635649,0"
     sodipodi:nodetypes="cccccc" />
  <text
     xml:space="preserve"
     style="font-size:12.16155148px;font-style:normal;font-weight:normal;line-height:125%;letter-spacing:0px;word-spacing:0px;fill:#0000ff;fill-opacity:1;stroke:none;font-family:sans-serif"
     x="33.288349"
     y="30.878841"
     id="text4142-5-6"
     sodipodi:linespacing="125%"><tspan
       sodipodi:role="line"
       id="tspan4144-6-2"
       x="33.288349"
       y="30.878841"
       style="font-style:normal;font-variant:normal;font-weight:bold;font-stretch:normal;font-family:sans-serif;-inkscape-font-specification:sans-serif Bold">XNOR</tspan></text>
  <path
     style="fill:none;stroke:#000000;stroke-width:3;stroke-linecap:round;stroke-linejoin:round"
     inkscape:connector-curvature="0"
     id="path6-6"
     d="m 12.82886,50.16988 c 0,0 8.00736,-11.224647 8.20292,-24.813068 C 21.22733,11.769704 12.6346,1.529745 12.6346,1.529745"
     sodipodi:nodetypes="csc" />
  <path
     inkscape:connector-curvature="0"
     d="m 84.194004,31.770836 c -2.9,0 -5.3,-2.4 -5.3,-5.3 0,-2.9 2.4,-5.3 5.3,-5.3 2.9,0 5.3,2.4 5.3,5.3 0,2.9 -2.4,5.3 -5.3,5.3 z m 0,-8.6 c -1.8,0 -3.3,1.5 -3.3,3.3 0,1.8 1.5,3.3 3.3,3.3 1.8,0 3.3,-1.5 3.3,-3.3 0,-1.8 -1.5,-3.3 -3.3,-3.3 z"
     id="path2998" />
</svg>
