<?xml version="1.0" encoding="UTF-8" standalone="no"?>
<!-- Created with Inkscape (http://www.inkscape.org/) -->
<svg xmlns:rdf="http://www.w3.org/1999/02/22-rdf-syntax-ns#" xmlns="http://www.w3.org/2000/svg" height="20.624mm" width="28.947mm" version="1.1" xmlns:cc="http://creativecommons.org/ns#" xmlns:dc="http://purl.org/dc/elements/1.1/" viewBox="0 0 102.56663 73.076845">
<metadata>
<rdf:RDF>
<cc:Work rdf:about="">
<dc:format>image/svg+xml</dc:format>
<dc:type rdf:resource="http://purl.org/dc/dcmitype/StillImage"/>
<dc:title/>
</cc:Work>
</rdf:RDF>
</metadata>
<g transform="translate(-208.31232,-424.8768)">
<path stroke-linejoin="round" d="m288.63,471.87,4.1734,25.586,5.175-25.586" stroke-dashoffset="0" stroke="#000" stroke-linecap="round" stroke-miterlimit="4" stroke-dasharray="none" stroke-width="1" fill="#CCC"/>
<text style="letter-spacing:0px;word-spacing:0px;" font-weight="normal" xml:space="preserve" font-size="27.33489418px" font-style="normal" y="444.80405" x="207.30307" font-family="sans-serif" line-height="125%" fill="#000000"><tspan font-weight="bold" font-style="normal" font-stretch="normal" font-variant="normal" y="444.80405" x="207.30307" font-family="sans-serif">Reg</tspan></text>
<path stroke-linejoin="round" d="m285.77,459.01,2.1919-26.018-9.0146,0,0-4.9843,29.214,0,0,4.9843-8.5137,0,1.5814,26.253s6.8845,1.1393,8.4984,5.9132c1.6139,4.7738-0.33628,6.6491,0.1383,6.7166l-33.08-0.0403s-0.74875-5.5702,1.8482-8.3898c2.5969-2.8195,7.1367-4.4346,7.1367-4.4346z" stroke-dashoffset="0" stroke="#000" stroke-linecap="round" stroke-miterlimit="4" stroke-dasharray="none" stroke-width="1" fill="#F00"/>
<g transform="translate(20.708128,0.50507628)">
<text style="letter-spacing:0px;word-spacing:0px;" line-height="125%" font-weight="normal" font-size="20px" font-style="normal" y="480.07489" x="212.36574" font-family="sans-serif" xml:space="preserve" fill="#0000ff"><tspan y="480.07489" x="212.36574">0</tspan></text>
<rect stroke-linejoin="miter" stroke-dasharray="none" stroke-dashoffset="0" rx="3.0178" ry="3.0178" height="31.82" width="19.193" stroke="#00F" stroke-linecap="square" stroke-miterlimit="4" y="457.55" x="209.81" stroke-width="3" fill="none"/>
</g>
</g>
</svg>
