<svg xmlns="http://www.w3.org/2000/svg" height="97.208" width="104.38" version="1.1" viewBox="0 0 97.855538 91.133307">
<path stroke="#000" d="m30.63 60.216a12.161 12.161 0 0 1 -2.118 -0.807c-1.344-0.702-3.332-2.71-4.051-4.09l-0.556-1.067-1.712-0.046c-1.368-0.036-1.925-0.125-2.77-0.44-2.98-1.112-5.217-3.415-6.123-6.304-0.435-1.39-0.46-3.63-0.054-4.987 0.15-0.504 0.252-0.93 0.225-0.945-2.14-1.239-4.028-3.672-4.69-6.043-0.326-1.167-0.26-3.509 0.134-4.775 0.583-1.871 1.933-3.8 3.478-4.968 0.433-0.327 0.503-0.452 0.356-0.628-0.357-0.43-0.964-2.302-1.061-3.276-0.333-3.32 2.195-6.876 5.615-7.9l0.9-0.27-0.095-1.03c-0.441-4.731 4.034-8.883 8.792-8.157 0.916 0.14 1.274 0.145 1.316 0.018 0.122-0.364 1.286-1.712 1.946-2.251 0.91-0.744 2.532-1.49 3.628-1.667 2.928-0.476 6.381 1.552 7.889 4.631l0.604 1.235 0.042 22.364c0.045 24.049 0.061 23.5-0.749 25.66-1.618 4.316-6.536 6.896-10.946 5.743zm21.797 0.077c-2.924-0.634-5.726-3.036-6.76-5.794-0.826-2.203-0.803-1.41-0.758-25.614l0.04-22.452 0.611-1.233c1.51-3.05 4.937-5.091 7.778-4.634 1.12 0.18 2.076 0.56 3.1 1.227 0.863 0.563 2.163 1.9 2.444 2.514 0.154 0.337 0.222 0.354 0.96 0.235 0.436-0.07 1.322-0.118 1.97-0.105 4.173 0.081 7.7 4.047 7.312 8.22l-0.097 1.046 0.51 0.106c1.982 0.41 4.256 2.248 5.22 4.217 0.783 1.596 0.99 3.02 0.66 4.537-0.143 0.654-0.442 1.552-0.666 1.997l-0.408 0.81 0.518 0.39c1.519 1.147 2.872 3.083 3.462 4.952 0.397 1.26 0.46 3.584 0.129 4.775-0.58 2.08-2.194 4.35-3.927 5.517-0.393 0.265-0.736 0.498-0.763 0.518s0.075 0.449 0.226 0.953c0.405 1.356 0.38 3.598-0.055 4.987-0.902 2.875-3.158 5.198-6.123 6.304-0.845 0.315-1.402 0.404-2.77 0.44l-1.712 0.046-0.556 1.066c-0.718 1.38-2.707 3.389-4.048 4.09-1.96 1.023-4.202 1.338-6.297 0.885z" fill="#faa"/>
<text font-family="sans-serif" font-size="29.899" letter-spacing="0" line-height="125%" word-spacing="0" y="75.222" x="3.643" font-weight="400" fill="#00f">
<tspan font-size="17.085" y="75.222" x="3.643" font-weight="700">Serial</tspan>
</text>
<text font-family="sans-serif" font-size="17.472" letter-spacing="0" line-height="125%" word-spacing="0" y="90.886" x="-.87" font-weight="400" fill="#00f">
<tspan font-weight="700">Controller</tspan>
</text>
<path stroke="#000" d="m30.486 60.852a12.161 12.161 0 0 1 -2.117 -0.808c-1.344-0.702-3.332-2.709-4.052-4.09l-0.555-1.066-1.712-0.046c-1.368-0.036-1.925-0.125-2.77-0.44-2.98-1.112-5.217-3.415-6.123-6.305-0.436-1.389-0.46-3.63-0.055-4.986 0.151-0.505 0.252-0.93 0.226-0.945-2.14-1.24-4.028-3.672-4.69-6.044-0.327-1.166-0.26-3.508 0.133-4.774 0.583-1.872 1.934-3.8 3.479-4.969 0.432-0.326 0.503-0.45 0.356-0.627-0.358-0.43-0.964-2.302-1.062-3.277-0.332-3.32 2.196-6.876 5.616-7.9l0.9-0.27-0.096-1.028c-0.44-4.733 4.035-8.885 8.792-8.158 0.917 0.14 1.274 0.145 1.317 0.018 0.121-0.365 1.286-1.712 1.946-2.252 0.909-0.743 2.532-1.489 3.628-1.667 2.927-0.475 6.381 1.553 7.888 4.632l0.605 1.235 0.042 22.363c0.045 24.05 0.06 23.5-0.75 25.662-1.617 4.315-6.535 6.895-10.946 5.742zm4.125-2.401c2.45-0.653 4.236-2.498 4.822-4.98 0.154-0.65 0.197-5.87 0.197-23.532v-22.698l-0.46-0.83c-0.575-1.035-1.437-1.823-2.58-2.358-1.253-0.586-2.884-0.573-4.063 0.033-1.099 0.565-1.94 1.458-2.573 2.73-0.312 0.627-0.686 1.135-0.939 1.276-0.386 0.215-0.492 0.203-1.333-0.152-1.356-0.573-3.24-0.552-4.465 0.048a5.034 5.034 0 0 0 -2.481 2.71c-0.286 0.755-0.339 1.158-0.287 2.182 0.037 0.731 0.168 1.45 0.313 1.722 0.137 0.256 0.469 0.934 0.738 1.506 1.436 3.059 5.58 4.902 8.783 3.907 1.323-0.41 2.31-1.084 3.589-2.45 0.873-0.932 1.184-1.166 1.547-1.166 1.022 0 1.555 0.95 1.065 1.895-0.467 0.902-2.43 2.684-3.677 3.338l-1.16 0.609 0.384 0.236c0.211 0.13 0.985 0.84 1.718 1.58 1.654 1.664 2.427 3.034 2.59 4.589 0.13 1.223 0.042 1.316-1.088 1.147-0.674-0.101-0.705-0.132-1.449-1.462-1.533-2.74-3.819-4.537-7.112-5.588-1.925-0.614-3.188-1.145-4.038-1.698-1.11-0.72-2.576-2.292-3.161-3.388l-0.517-0.968-0.651 0.1c-0.995 0.152-2.542 0.96-3.076 1.608-0.905 1.094-1.166 1.852-1.175 3.402-0.01 1.605 0.247 2.34 1.223 3.498 0.902 1.071 0.724 1.738-0.652 2.45-1.062 0.548-2.526 1.948-2.992 2.86-0.784 1.533-0.998 3.451-0.568 5.096 0.534 2.046 1.665 3.403 3.627 4.35 1.71 0.827 1.77 1.01 0.98 3.035-0.503 1.294-0.51 3.643-0.015 4.988 1.24 3.363 4.82 5.04 8.59 4.024a12.888 12.888 0 0 0 2.375 -0.954c3.909-2.154 5.068-5.599 3.31-9.831-1.132-2.728-3.72-4.343-6.765-4.223-0.837 0.033-0.958-0.004-1.297-0.397-0.476-0.552-0.474-1.065 0.005-1.62 0.366-0.426 0.425-0.44 1.845-0.427 4.5 0.04 7.807 2.715 9.08 7.344 0.403 1.47 0.434 3.64 0.071 4.995-0.729 2.72-2.955 5.28-5.854 6.734-0.951 0.476-0.96 0.578-0.163 1.84 0.872 1.378 2.517 2.58 4.013 2.933 0.904 0.212 2.852 0.19 3.726-0.043zm17.672 2.477c-2.923-0.633-5.726-3.035-6.76-5.794-0.826-2.203-0.802-1.41-0.758-25.613l0.041-22.453 0.61-1.232c1.511-3.05 4.938-5.091 7.779-4.634 1.119 0.18 2.076 0.559 3.099 1.226 0.864 0.564 2.163 1.9 2.445 2.515 0.154 0.337 0.221 0.354 0.96 0.235 0.436-0.07 1.322-0.118 1.969-0.105 4.174 0.08 7.701 4.046 7.313 8.22l-0.098 1.046 0.51 0.105c1.982 0.411 4.257 2.249 5.221 4.218 0.782 1.596 0.989 3.02 0.659 4.537-0.142 0.653-0.442 1.552-0.666 1.997l-0.407 0.81 0.518 0.39c1.518 1.146 2.872 3.083 3.461 4.952 0.398 1.26 0.46 3.584 0.13 4.774-0.58 2.08-2.195 4.35-3.927 5.518a85.5 85.5 0 0 0 -0.763 0.518c-0.027 0.02 0.075 0.448 0.225 0.953 0.406 1.356 0.381 3.597-0.054 4.986-0.902 2.876-3.158 5.199-6.124 6.305-0.845 0.315-1.401 0.404-2.77 0.44l-1.712 0.046-0.555 1.066c-0.719 1.38-2.708 3.388-4.049 4.089-1.96 1.024-4.202 1.339-6.297 0.885zm4.878-2.85c1.88-0.879 2.957-2.155 3.729-4.421 0.526-1.547 0.785-1.705 2.317-1.417 1.385 0.26 3.113 0.142 4.265-0.293 1.759-0.664 3.273-2.262 3.87-4.084 0.336-1.023 0.384-3.355 0.09-4.318l-0.194-0.64-2.158-0.016c-2.26-0.017-3.944-0.265-5.658-0.835-0.892-0.296-1.116-0.313-2.145-0.16-0.632 0.094-1.535 0.315-2.006 0.49-1.918 0.717-3.663 2.476-4.367 4.402-0.373 1.022-0.753 1.39-1.434 1.39-0.561 0-1.213-0.633-1.213-1.177 0-0.225 0.155-0.774 0.343-1.22 1.156-2.73 3.426-4.927 6.034-5.837l0.81-0.283-0.673-0.868c-0.946-1.223-1.412-2.09-1.888-3.514-0.74-2.206-0.734-5.714 0.009-6.456 0.473-0.471 1.256-0.489 1.736-0.038 0.338 0.317 0.35 0.407 0.266 2.23-0.068 1.499-0.03 2.115 0.18 2.918 0.616 2.346 2.367 4.57 4.299 5.458 1.675 0.77 3.046 1.013 5.746 1.017 2.214 0.003 2.405-0.021 3.257-0.411 1.038-0.475 2.43-1.782 2.922-2.745 1.037-2.03 1.036-4.611-0.002-6.643-0.455-0.889-1.913-2.292-2.962-2.85-0.474-0.252-0.948-0.569-1.054-0.703-0.35-0.45-0.223-1.05 0.372-1.757 0.975-1.158 1.232-1.893 1.223-3.498-0.01-1.55-0.27-2.308-1.175-3.402-0.532-0.645-2.08-1.456-3.066-1.607l-0.642-0.098-0.691 1.067c-0.969 1.494-2.681 3.157-3.829 3.716-1.202 0.586-3.052 0.719-4.689 0.336-1.368-0.32-3.62-1.365-3.845-1.785-0.28-0.522-0.197-1.111 0.214-1.521 0.486-0.486 1.028-0.487 1.861-0.005 1.725 0.999 4.074 1.322 5.361 0.738 0.853-0.388 1.976-1.51 2.791-2.793 1.109-1.743 1.287-2.28 1.287-3.878 0-1.228-0.057-1.528-0.436-2.299a5.227 5.227 0 0 0 -2.446 -2.378c-1.05-0.484-3.25-0.474-4.285 0.018-0.405 0.193-0.83 0.35-0.946 0.35-0.431 0-0.909-0.51-1.361-1.452-1.191-2.483-3.54-3.678-5.919-3.012-1.662 0.466-3.252 1.998-3.667 3.536-0.252 0.934-0.123 45.394 0.134 46.306 0.672 2.386 2.387 4.13 4.731 4.813 0.439 0.128 1.305 0.188 2.288 0.159 1.383-0.041 1.712-0.108 2.616-0.53z"/>
<text style="word-spacing:0;letter-spacing:0" font-family="sans-serif" font-size="29.899px" letter-spacing="0" line-height="125%" word-spacing="0" y="75.283997" x="63.165001" font-weight="400" fill="#008000">
<tspan font-size="17.085px" y="75.283997" x="63.165001" font-weight="700">RX</tspan>
</text>
</svg>
