<?xml version="1.0" encoding="UTF-8" standalone="no"?>
<svg
   xmlns:dc="http://purl.org/dc/elements/1.1/"
   xmlns:cc="http://creativecommons.org/ns#"
   xmlns:rdf="http://www.w3.org/1999/02/22-rdf-syntax-ns#"
   xmlns:svg="http://www.w3.org/2000/svg"
   xmlns="http://www.w3.org/2000/svg"
   xmlns:sodipodi="http://sodipodi.sourceforge.net/DTD/sodipodi-0.dtd"
   xmlns:inkscape="http://www.inkscape.org/namespaces/inkscape"
   width="104.379"
   height="97.208"
   viewBox="0 0 97.855538 91.133307"
   version="1.1"
   id="svg18"
   sodipodi:docname="cerebro_rx_exp.svg"
   inkscape:version="0.92.1 r15371">
  <metadata
     id="metadata24">
    <rdf:RDF>
      <cc:Work
         rdf:about="">
        <dc:format>image/svg+xml</dc:format>
        <dc:type
           rdf:resource="http://purl.org/dc/dcmitype/StillImage" />
        <dc:title></dc:title>
      </cc:Work>
    </rdf:RDF>
  </metadata>
  <defs
     id="defs22" />
  <sodipodi:namedview
     pagecolor="#ffffff"
     bordercolor="#666666"
     borderopacity="1"
     objecttolerance="10"
     gridtolerance="10"
     guidetolerance="10"
     inkscape:pageopacity="0"
     inkscape:pageshadow="2"
     inkscape:window-width="1920"
     inkscape:window-height="1016"
     id="namedview20"
     showgrid="false"
     inkscape:zoom="2.4277837"
     inkscape:cx="52.189499"
     inkscape:cy="48.604"
     inkscape:window-x="0"
     inkscape:window-y="27"
     inkscape:window-maximized="1"
     inkscape:current-layer="svg18" />
  <path
     d="M30.63 60.216a12.161 12.161 0 0 1-2.118-.807c-1.344-.702-3.332-2.71-4.051-4.09l-.556-1.067-1.712-.046c-1.368-.036-1.925-.125-2.77-.44-2.98-1.112-5.217-3.415-6.123-6.304-.435-1.39-.46-3.63-.054-4.987.15-.504.252-.93.225-.945-2.14-1.239-4.028-3.672-4.69-6.043-.326-1.167-.26-3.509.134-4.775.583-1.871 1.933-3.8 3.478-4.968.433-.327.503-.452.356-.628-.357-.43-.964-2.302-1.061-3.276-.333-3.32 2.195-6.876 5.615-7.9l.9-.27-.095-1.03c-.441-4.731 4.034-8.883 8.792-8.157.916.14 1.274.145 1.316.018.122-.364 1.286-1.712 1.946-2.251.91-.744 2.532-1.49 3.628-1.667 2.928-.476 6.381 1.552 7.889 4.631l.604 1.235.042 22.364c.045 24.049.061 23.5-.749 25.66-1.618 4.316-6.536 6.896-10.946 5.743zm21.797.077c-2.924-.634-5.726-3.036-6.76-5.794-.826-2.203-.803-1.41-.758-25.614l.04-22.452.611-1.233C47.07 2.15 50.497.109 53.338.566c1.12.18 2.076.56 3.1 1.227.863.563 2.163 1.9 2.444 2.514.154.337.222.354.96.235.436-.07 1.322-.118 1.97-.105 4.173.081 7.7 4.047 7.312 8.22l-.097 1.046.51.106c1.982.41 4.256 2.248 5.22 4.217.783 1.596.99 3.02.66 4.537-.143.654-.442 1.552-.666 1.997l-.408.81.518.39c1.519 1.147 2.872 3.083 3.462 4.952.397 1.26.46 3.584.129 4.775-.58 2.08-2.194 4.35-3.927 5.517-.393.265-.736.498-.763.518-.027.02.075.449.226.953.405 1.356.38 3.598-.055 4.987-.902 2.875-3.158 5.198-6.123 6.304-.845.315-1.402.404-2.77.44l-1.712.046-.556 1.066c-.718 1.38-2.707 3.389-4.048 4.09-1.96 1.023-4.202 1.338-6.297.885z"
     fill="#faa"
     stroke="#000"
     id="path2" />
  <text
     y="75.222"
     x="3.643"
     style="line-height:125%"
     font-weight="400"
     font-size="29.899"
     letter-spacing="0"
     word-spacing="0"
     font-family="sans-serif"
     fill="#00f"
     id="text6">
    <tspan
       style="-inkscape-font-specification:'sans-serif Bold'"
       y="75.222"
       x="3.643"
       font-weight="700"
       font-size="17.085"
       id="tspan4">Serial</tspan>
  </text>
  <text
     y="90.886"
     x="-.87"
     style="line-height:125%"
     font-weight="400"
     font-size="17.472"
     letter-spacing="0"
     word-spacing="0"
     font-family="sans-serif"
     fill="#00f"
     id="text10">
    <tspan
       style="-inkscape-font-specification:'sans-serif Bold'"
       font-weight="700"
       id="tspan8">Controller</tspan>
  </text>
  <path
     d="M30.486 60.852a12.161 12.161 0 0 1-2.117-.808c-1.344-.702-3.332-2.709-4.052-4.09l-.555-1.066-1.712-.046c-1.368-.036-1.925-.125-2.77-.44-2.98-1.112-5.217-3.415-6.123-6.305-.436-1.389-.46-3.63-.055-4.986.151-.505.252-.93.226-.945-2.14-1.24-4.028-3.672-4.69-6.044-.327-1.166-.26-3.508.133-4.774.583-1.872 1.934-3.8 3.479-4.969.432-.326.503-.45.356-.627-.358-.43-.964-2.302-1.062-3.277-.332-3.32 2.196-6.876 5.616-7.9l.9-.27-.096-1.028c-.44-4.733 4.035-8.885 8.792-8.158.917.14 1.274.145 1.317.018.121-.365 1.286-1.712 1.946-2.252.909-.743 2.532-1.489 3.628-1.667 2.927-.475 6.381 1.553 7.888 4.632l.605 1.235.042 22.363c.045 24.05.06 23.5-.75 25.662-1.617 4.315-6.535 6.895-10.946 5.742zm4.125-2.401c2.45-.653 4.236-2.498 4.822-4.98.154-.65.197-5.87.197-23.532V7.241l-.46-.83c-.575-1.035-1.437-1.823-2.58-2.358-1.253-.586-2.884-.573-4.063.033-1.099.565-1.94 1.458-2.573 2.73-.312.627-.686 1.135-.939 1.276-.386.215-.492.203-1.333-.152-1.356-.573-3.24-.552-4.465.048a5.034 5.034 0 0 0-2.481 2.71c-.286.755-.339 1.158-.287 2.182.037.731.168 1.45.313 1.722.137.256.469.934.738 1.506 1.436 3.059 5.58 4.902 8.783 3.907 1.323-.41 2.31-1.084 3.589-2.45.873-.932 1.184-1.166 1.547-1.166 1.022 0 1.555.95 1.065 1.895-.467.902-2.43 2.684-3.677 3.338l-1.16.609.384.236c.211.13.985.84 1.718 1.58 1.654 1.664 2.427 3.034 2.59 4.589.13 1.223.042 1.316-1.088 1.147-.674-.101-.705-.132-1.449-1.462-1.533-2.74-3.819-4.537-7.112-5.588-1.925-.614-3.188-1.145-4.038-1.698-1.11-.72-2.576-2.292-3.161-3.388l-.517-.968-.651.1c-.995.152-2.542.96-3.076 1.608-.905 1.094-1.166 1.852-1.175 3.402-.01 1.605.247 2.34 1.223 3.498.902 1.071.724 1.738-.652 2.45-1.062.548-2.526 1.948-2.992 2.86-.784 1.533-.998 3.451-.568 5.096.534 2.046 1.665 3.403 3.627 4.35 1.71.827 1.77 1.01.98 3.035-.503 1.294-.51 3.643-.015 4.988 1.24 3.363 4.82 5.04 8.59 4.024a12.888 12.888 0 0 0 2.375-.954c3.909-2.154 5.068-5.599 3.31-9.831-1.132-2.728-3.72-4.343-6.765-4.223-.837.033-.958-.004-1.297-.397-.476-.552-.474-1.065.005-1.62.366-.426.425-.44 1.845-.427 4.5.04 7.807 2.715 9.08 7.344.403 1.47.434 3.64.071 4.995-.729 2.72-2.955 5.28-5.854 6.734-.951.476-.96.578-.163 1.84.872 1.378 2.517 2.58 4.013 2.933.904.212 2.852.19 3.726-.043zm17.672 2.477c-2.923-.633-5.726-3.035-6.76-5.794-.826-2.203-.802-1.41-.758-25.613l.041-22.453.61-1.232c1.511-3.05 4.938-5.091 7.779-4.634 1.119.18 2.076.559 3.099 1.226.864.564 2.163 1.9 2.445 2.515.154.337.221.354.96.235.436-.07 1.322-.118 1.969-.105 4.174.08 7.701 4.046 7.313 8.22l-.098 1.046.51.105c1.982.411 4.257 2.249 5.221 4.218.782 1.596.989 3.02.659 4.537-.142.653-.442 1.552-.666 1.997l-.407.81.518.39c1.518 1.146 2.872 3.083 3.461 4.952.398 1.26.46 3.584.13 4.774-.58 2.08-2.195 4.35-3.927 5.518a85.5 85.5 0 0 0-.763.518c-.027.02.075.448.225.953.406 1.356.381 3.597-.054 4.986-.902 2.876-3.158 5.199-6.124 6.305-.845.315-1.401.404-2.77.44l-1.712.046-.555 1.066c-.719 1.38-2.708 3.388-4.049 4.089-1.96 1.024-4.202 1.339-6.297.885zm4.878-2.85c1.88-.879 2.957-2.155 3.729-4.421.526-1.547.785-1.705 2.317-1.417 1.385.26 3.113.142 4.265-.293 1.759-.664 3.273-2.262 3.87-4.084.336-1.023.384-3.355.09-4.318l-.194-.64-2.158-.016c-2.26-.017-3.944-.265-5.658-.835-.892-.296-1.116-.313-2.145-.16-.632.094-1.535.315-2.006.49-1.918.717-3.663 2.476-4.367 4.402-.373 1.022-.753 1.39-1.434 1.39-.561 0-1.213-.633-1.213-1.177 0-.225.155-.774.343-1.22 1.156-2.73 3.426-4.927 6.034-5.837l.81-.283-.673-.868c-.946-1.223-1.412-2.09-1.888-3.514-.74-2.206-.734-5.714.009-6.456.473-.471 1.256-.489 1.736-.038.338.317.35.407.266 2.23-.068 1.499-.03 2.115.18 2.918.616 2.346 2.367 4.57 4.299 5.458 1.675.77 3.046 1.013 5.746 1.017 2.214.003 2.405-.021 3.257-.411 1.038-.475 2.43-1.782 2.922-2.745 1.037-2.03 1.036-4.611-.002-6.643-.455-.889-1.913-2.292-2.962-2.85-.474-.252-.948-.569-1.054-.703-.35-.45-.223-1.05.372-1.757.975-1.158 1.232-1.893 1.223-3.498-.01-1.55-.27-2.308-1.175-3.402-.532-.645-2.08-1.456-3.066-1.607l-.642-.098-.691 1.067c-.969 1.494-2.681 3.157-3.829 3.716-1.202.586-3.052.719-4.689.336-1.368-.32-3.62-1.365-3.845-1.785-.28-.522-.197-1.111.214-1.521.486-.486 1.028-.487 1.861-.005 1.725.999 4.074 1.322 5.361.738.853-.388 1.976-1.51 2.791-2.793 1.109-1.743 1.287-2.28 1.287-3.878 0-1.228-.057-1.528-.436-2.299A5.227 5.227 0 0 0 63.57 7.89c-1.05-.484-3.25-.474-4.285.018-.405.193-.83.35-.946.35-.431 0-.909-.51-1.361-1.452-1.191-2.483-3.54-3.678-5.919-3.012-1.662.466-3.252 1.998-3.667 3.536-.252.934-.123 45.394.134 46.306.672 2.386 2.387 4.13 4.731 4.813.439.128 1.305.188 2.288.159 1.383-.041 1.712-.108 2.616-.53z"
     stroke="#000"
     id="path12" />
  <text
     y="75.283997"
     x="63.165001"
     style="font-weight:400;font-size:29.89900017px;line-height:125%;font-family:sans-serif;letter-spacing:0;word-spacing:0;fill:#008000"
     font-weight="400"
     font-size="29.899"
     letter-spacing="0"
     word-spacing="0"
     id="text16">
    <tspan
       style="font-weight:700;font-size:17.08499908px;-inkscape-font-specification:'sans-serif Bold'"
       y="75.283997"
       x="63.165001"
       font-weight="700"
       font-size="17.085"
       id="tspan14">RX</tspan>
  </text>
</svg>
