<svg xmlns="http://www.w3.org/2000/svg" xml:space="preserve" height="86.655" width="78.524" version="1.0" viewBox="-9.302 -9.782 78.523849 86.655251"><g stroke="#000" transform="matrix(.70555 0 0 .70555 -96.792 -77.309)"><g stroke-width="1.5051"><path d="m136.41 142.53c-0.00066 23.876 19.355 43.231 43.23 43.231s43.232-19.355 43.232-43.231c-0.00066-23.876-19.357-43.233-43.232-43.233-23.876 0.00022-43.23 19.357-43.23 43.233z" fill="#fff"/><path d="m207.03 115.04c-5.6176-5.6169-12.526-9.1537-19.769-10.615v6.8724h-15.454v-6.8717c-7.2437 1.462-14.152 4.9992-19.768 10.616-12.848 12.848-14.821 32.449-5.9269 47.375h13.535v13.54c12.214 7.2796 27.558 7.2799 39.772 0.00044v-13.54h13.536c8.8953-14.928 6.9236-34.529-5.9252-47.378z" fill="none"/><rect height="24.123" width="13.569" y="121.84" x="172.73" fill="none"/></g><g stroke-width="6.9148" transform="matrix(.21766 0 0 .21766 132.15 95.139)" fill="none"><circle cy="141.75" cx="126.09" r="19.554"/><circle cy="233.33" cx="102.95" r="19.554"/><circle cy="233.33" cx="332.33" r="19.554"/><circle cy="324.45" cx="170.96" r="19.554"/><circle cy="141.74" cx="309.18" r="19.554"/><circle cy="324.45" cx="264.32" r="19.554"/></g></g><g style="word-spacing:0;letter-spacing:0" font-family="sans-serif" transform="matrix(1.0667 0 0 1.0667 -17.345 20.706)" letter-spacing="0" word-spacing="0" font-weight="400"><text style="word-spacing:0;letter-spacing:0" font-size="29.899px" line-height="125%" y="70.334007" x="8.1706238" fill="#0000ff"/>
<text style="word-spacing:0;letter-spacing:0" font-size="18.75px" line-height="125%" y="98.184006" x="44.322624"/>
<text style="word-spacing:0;letter-spacing:0" font-size="16.326px" line-height="125%" y="49.267529" x="7.9166641" fill="#0000ff"><tspan y="49.267529" x="7.9166641" font-weight="700">PS/2</tspan></text>
</g><text style="word-spacing:0;letter-spacing:0" stroke-width="1.0667" font-family="sans-serif" font-size="17.414px" letter-spacing="0" word-spacing="0" y="72.966454" x="40.743263" font-weight="400" line-height="125%" fill="#008000"><tspan stroke-width="1.0667" y="72.966454" x="40.743263" font-weight="700">RX</tspan></text>
</svg>
