<?xml version="1.0" encoding="UTF-8" standalone="no"?>
<svg xmlns:rdf="http://www.w3.org/1999/02/22-rdf-syntax-ns#" xmlns="http://www.w3.org/2000/svg" height="129.6" width="79.669" version="1.1" xmlns:cc="http://creativecommons.org/ns#" xmlns:dc="http://purl.org/dc/elements/1.1/" viewBox="0 0 8852.1341 14400.352">
<metadata>
<rdf:RDF>
<cc:Work rdf:about="">
<dc:format>image/svg+xml</dc:format>
<dc:type rdf:resource="http://purl.org/dc/dcmitype/StillImage"/>
<dc:title>SVG Picture created as pp.svg date 2017/08/24 15:04:40</dc:title>
</cc:Work>
</rdf:RDF>
</metadata>
<title>SVG Picture created as pp.svg date 2017/08/24 15:04:40</title>
<desc>Picture generated by Eeschema-SVG</desc>
<g stroke-linejoin="round" fill-opacity="0" transform="translate(-22223.949,-15774.656)" stroke="#000" stroke-linecap="round" stroke-width="150">
<polyline points="23500,21000,23000,20750,24000,20250,23000,19750,24000,19250,23000,18750,24000,18250,23500,18000" fill="none;"/>
<path d="m23500,18000,0-1000"/>
</g>
<g stroke-linejoin="round" fill-opacity="0" transform="translate(-22223.949,-15774.656)" stroke="#000" stroke-linecap="round" stroke-width="150">
<path d="m23500,21000,0,1000"/>
</g>
<g stroke-linejoin="round" fill-opacity="0" transform="translate(-22223.949,-15774.656)" stroke="#000" stroke-linecap="round" stroke-width="150">
<polyline points="22500,25800,24500,25800" fill="none;"/>
<polyline points="22500,25200,24500,25200" fill="none;"/>
<path d="m23500,25200,0-1700"/>
</g>
<g stroke-linejoin="round" fill-opacity="0" transform="translate(-22223.949,-15774.656)" stroke="#000" stroke-linecap="round" stroke-width="150">
<path d="m23500,25800,0,1700"/>
</g>
<g stroke-linejoin="round" fill-opacity="0" transform="translate(-22223.949,-15774.656)" stroke="#000" stroke-linecap="round" stroke-width="150">
<polyline points="26000,21000,26000,24000,29000,22500,26000,21000" fill="none;"/>
<polyline points="27550,22100,26900,22100,26500,22900,26250,22900,26900,22900,27300,22100" fill="none;"/>
<path d="m26000,22500-1000,0"/>
<circle d="m 29700,22500 c 0,193.3 -156.7,350 -350,350 -193.3,0 -350,-156.7 -350,-350 0,-193.3 156.7,-350 350,-350 193.3,0 350,156.7 350,350 z" cy="22500" cx="29350" r="350"/>
<path d="m29700,22500,300,0"/>
<path d="m23500,22000,0,1500"/>
<path d="m25000,22500-1500,0"/>
</g>
<g stroke-linejoin="round" transform="translate(-22223.949,-15774.656)" stroke="#000" stroke-linecap="round" stroke-width="100" fill="#000">
<circle d="m 23660,22500 c 0,88.366 -71.634,160 -160,160 -88.366,0 -160,-71.634 -160,-160 0,-88.366 71.634,-160 160,-160 88.366,0 160,71.634 160,160 z" cy="22500" cx="23500" r="160"/>
</g>
<g stroke-linejoin="round" fill-opacity="0" transform="translate(-22223.949,-15774.656)" stroke="#000" stroke-linecap="round" stroke-width="150">
<polyline points="23500,28500,23500,28900" fill="none;"/>
<polyline points="22300,28900,24700,28900" fill="none;"/>
<polyline points="22700,29500,24300,29500,23900,29500" fill="none;"/>
<polyline points="23100,30100,23900,30100,23900,30100" fill="none;"/>
<path d="m23500,28500,0-1000"/>
</g>
<g stroke-linejoin="round" fill-opacity="0" transform="translate(-22223.949,-15774.656)" stroke="#000" stroke-linecap="round" stroke-width="150">
<circle d="m 23700,16500 c 0,110.457 -89.543,200 -200,200 -110.457,0 -200,-89.543 -200,-200 0,-110.457 89.543,-200 200,-200 110.457,0 200,89.543 200,200 z" cy="16500" cx="23500" r="200"/>
<polyline points="23500,17000,23500,16700,23500,16700" fill="none;"/>
</g>
<g stroke-linejoin="round" fill-opacity="0" transform="translate(-22223.949,-15774.656)" stroke="#000" stroke-linecap="round" stroke-width="50">
<path d="m23100,15800,100,300,100-300"/>
<path d="m23570,16070-10,20-40,10-30,0-50-10-20-30-20-30-10-60,0-40,10-60,20-30,20-20,50-20,30,0,40,20,10,10"/>
<path d="m23870,16070-10,20-40,10-30,0-50-10-20-30-20-30-10-60,0-40,10-60,20-30,20-20,50-20,30,0,40,20,10,10"/>
</g>
<g stroke-linejoin="round" fill-opacity="0" transform="translate(-22223.949,-15774.656)" stroke="#000" stroke-linecap="round" stroke-width="150">
<path d="m3E+4,22500,1000,0"/>
</g>
</svg>
