<?xml version="1.0" encoding="UTF-8" standalone="no"?>
<svg
   xmlns:dc="http://purl.org/dc/elements/1.1/"
   xmlns:cc="http://creativecommons.org/ns#"
   xmlns:rdf="http://www.w3.org/1999/02/22-rdf-syntax-ns#"
   xmlns:svg="http://www.w3.org/2000/svg"
   xmlns="http://www.w3.org/2000/svg"
   xmlns:sodipodi="http://sodipodi.sourceforge.net/DTD/sodipodi-0.dtd"
   xmlns:inkscape="http://www.inkscape.org/namespaces/inkscape"
   version="1.1"
   width="79.669151"
   height="129.60304"
   viewBox="0 0 8852.1341 14400.352"
   id="svg2"
   inkscape:version="0.48.5 r10040"
   sodipodi:docname="POR.svg">
  <metadata
     id="metadata110">
    <rdf:RDF>
      <cc:Work
         rdf:about="">
        <dc:format>image/svg+xml</dc:format>
        <dc:type
           rdf:resource="http://purl.org/dc/dcmitype/StillImage" />
        <dc:title>SVG Picture created as pp.svg date 2017/08/24 15:04:40 </dc:title>
      </cc:Work>
    </rdf:RDF>
  </metadata>
  <defs
     id="defs108" />
  <sodipodi:namedview
     pagecolor="#ffffff"
     bordercolor="#666666"
     borderopacity="1"
     objecttolerance="10"
     gridtolerance="10"
     guidetolerance="10"
     inkscape:pageopacity="0"
     inkscape:pageshadow="2"
     inkscape:window-width="640"
     inkscape:window-height="480"
     id="namedview106"
     showgrid="false"
     fit-margin-top="0"
     fit-margin-left="0"
     fit-margin-right="0"
     fit-margin-bottom="0"
     inkscape:zoom="1.7940909"
     inkscape:cx="110.95664"
     inkscape:cy="88.69803"
     inkscape:window-x="0"
     inkscape:window-y="27"
     inkscape:window-maximized="0"
     inkscape:current-layer="svg2" />
  <title
     id="title4">SVG Picture created as pp.svg date 2017/08/24 15:04:40 </title>
  <desc
     id="desc6">Picture generated by Eeschema-SVG </desc>
  <g
     style="fill:#000000;fill-opacity:1;stroke:#000000;stroke-linecap:round;stroke-linejoin:round;stroke-opacity:1"
     id="g8"
     transform="translate(-22223.949,-15774.656)" />
  <g
     style="fill:#000000;fill-opacity:0;stroke:#000000;stroke-width:0;stroke-linecap:round;stroke-linejoin:round;stroke-opacity:1"
     id="g10"
     transform="translate(-22223.949,-15774.656)" />
  <g
     style="fill:#000000;fill-opacity:0;stroke:#000000;stroke-width:150;stroke-linecap:round;stroke-linejoin:round;stroke-opacity:1"
     id="g12"
     transform="translate(-22223.949,-15774.656)">
    <polyline
       fill="none;"
       points="23500,21000 23000,20750 24000,20250 23000,19750 24000,19250 23000,18750 24000,18250 23500,18000 "
       id="polyline14" />
    <path
       d="m 23500,18000 0,-1000"
       id="path16"
       inkscape:connector-curvature="0" />
  </g>
  <g
     style="fill:#000000;fill-opacity:0;stroke:#000000;stroke-width:100;stroke-linecap:round;stroke-linejoin:round;stroke-opacity:1"
     id="g18"
     transform="translate(-22223.949,-15774.656)" />
  <g
     style="fill:#000000;fill-opacity:0;stroke:#000000;stroke-width:150;stroke-linecap:round;stroke-linejoin:round;stroke-opacity:1"
     id="g20"
     transform="translate(-22223.949,-15774.656)">
    <path
       d="m 23500,21000 0,1000"
       id="path22"
       inkscape:connector-curvature="0" />
  </g>
  <g
     style="fill:#000000;fill-opacity:0;stroke:#000000;stroke-width:100;stroke-linecap:round;stroke-linejoin:round;stroke-opacity:1"
     id="g24"
     transform="translate(-22223.949,-15774.656)" />
  <g
     style="fill:#000000;fill-opacity:0;stroke:#000000;stroke-width:150;stroke-linecap:round;stroke-linejoin:round;stroke-opacity:1"
     id="g26"
     transform="translate(-22223.949,-15774.656)" />
  <g
     style="fill:#000000;fill-opacity:0;stroke:#000000;stroke-width:0;stroke-linecap:round;stroke-linejoin:round;stroke-opacity:1"
     id="g28"
     transform="translate(-22223.949,-15774.656)" />
  <g
     style="fill:#000000;fill-opacity:0;stroke:#000000;stroke-width:150;stroke-linecap:round;stroke-linejoin:round;stroke-opacity:1"
     id="g30"
     transform="translate(-22223.949,-15774.656)">
    <polyline
       fill="none;"
       points="22500,25800 24500,25800 "
       id="polyline32" />
    <polyline
       fill="none;"
       points="22500,25200 24500,25200 "
       id="polyline34" />
    <path
       d="m 23500,25200 0,-1700"
       id="path36"
       inkscape:connector-curvature="0" />
  </g>
  <g
     style="fill:#000000;fill-opacity:0;stroke:#000000;stroke-width:70;stroke-linecap:round;stroke-linejoin:round;stroke-opacity:1"
     id="g38"
     transform="translate(-22223.949,-15774.656)" />
  <g
     style="fill:#000000;fill-opacity:0;stroke:#000000;stroke-width:150;stroke-linecap:round;stroke-linejoin:round;stroke-opacity:1"
     id="g40"
     transform="translate(-22223.949,-15774.656)">
    <path
       d="m 23500,25800 0,1700"
       id="path42"
       inkscape:connector-curvature="0" />
  </g>
  <g
     style="fill:#000000;fill-opacity:0;stroke:#000000;stroke-width:70;stroke-linecap:round;stroke-linejoin:round;stroke-opacity:1"
     id="g44"
     transform="translate(-22223.949,-15774.656)" />
  <g
     style="fill:#000000;fill-opacity:0;stroke:#000000;stroke-width:150;stroke-linecap:round;stroke-linejoin:round;stroke-opacity:1"
     id="g46"
     transform="translate(-22223.949,-15774.656)" />
  <g
     style="fill:#000000;fill-opacity:0;stroke:#000000;stroke-width:0;stroke-linecap:round;stroke-linejoin:round;stroke-opacity:1"
     id="g48"
     transform="translate(-22223.949,-15774.656)" />
  <g
     style="fill:#000000;fill-opacity:0;stroke:#000000;stroke-width:150;stroke-linecap:round;stroke-linejoin:round;stroke-opacity:1"
     id="g50"
     transform="translate(-22223.949,-15774.656)">
    <polyline
       fill="none;"
       points="26000,21000 26000,24000 29000,22500 26000,21000 "
       id="polyline52" />
    <polyline
       fill="none;"
       points="27550,22100 26900,22100 26500,22900 26250,22900 26900,22900 27300,22100 "
       id="polyline54" />
    <path
       d="m 26000,22500 -1000,0"
       id="path56"
       inkscape:connector-curvature="0" />
    <circle
       cx="29350"
       cy="22500"
       r="350"
       id="circle58"
       sodipodi:cx="29350"
       sodipodi:cy="22500"
       sodipodi:rx="350"
       sodipodi:ry="350"
       d="m 29700,22500 c 0,193.3 -156.7,350 -350,350 -193.3,0 -350,-156.7 -350,-350 0,-193.3 156.7,-350 350,-350 193.3,0 350,156.7 350,350 z" />
    <path
       d="m 29700,22500 300,0"
       id="path60"
       inkscape:connector-curvature="0" />
    <path
       d="m 23500,22000 0,1500"
       id="path62"
       inkscape:connector-curvature="0" />
    <path
       d="m 25000,22500 -1500,0"
       id="path64"
       inkscape:connector-curvature="0" />
  </g>
  <g
     style="fill:#000000;fill-opacity:0;stroke:#000000;stroke-width:0;stroke-linecap:round;stroke-linejoin:round;stroke-opacity:1"
     id="g66"
     transform="translate(-22223.949,-15774.656)" />
  <g
     style="fill:#000000;fill-opacity:1;stroke:#000000;stroke-width:100;stroke-linecap:round;stroke-linejoin:round;stroke-opacity:1"
     id="g68"
     transform="translate(-22223.949,-15774.656)">
    <circle
       cx="23500"
       cy="22500"
       r="160"
       id="circle70"
       sodipodi:cx="23500"
       sodipodi:cy="22500"
       sodipodi:rx="160"
       sodipodi:ry="160"
       d="m 23660,22500 c 0,88.366 -71.634,160 -160,160 -88.366,0 -160,-71.634 -160,-160 0,-88.366 71.634,-160 160,-160 88.366,0 160,71.634 160,160 z" />
  </g>
  <g
     style="fill:#000000;fill-opacity:1;stroke:#000000;stroke-width:0;stroke-linecap:round;stroke-linejoin:round;stroke-opacity:1"
     id="g72"
     transform="translate(-22223.949,-15774.656)" />
  <g
     style="fill:#000000;fill-opacity:0;stroke:#000000;stroke-width:150;stroke-linecap:round;stroke-linejoin:round;stroke-opacity:1"
     id="g74"
     transform="translate(-22223.949,-15774.656)">
    <polyline
       fill="none;"
       points="23500,28500 23500,28900 "
       id="polyline76" />
    <polyline
       fill="none;"
       points="22300,28900 24700,28900 "
       id="polyline78" />
    <polyline
       fill="none;"
       points="22700,29500 24300,29500 23900,29500 "
       id="polyline80" />
    <polyline
       fill="none;"
       points="23100,30100 23900,30100 23900,30100 "
       id="polyline82" />
    <path
       d="m 23500,28500 0,-1000"
       id="path84"
       inkscape:connector-curvature="0" />
  </g>
  <g
     style="fill:#000000;fill-opacity:0;stroke:#000000;stroke-width:0;stroke-linecap:round;stroke-linejoin:round;stroke-opacity:1"
     id="g86"
     transform="translate(-22223.949,-15774.656)" />
  <g
     style="fill:#000000;fill-opacity:0;stroke:#000000;stroke-width:150;stroke-linecap:round;stroke-linejoin:round;stroke-opacity:1"
     id="g88"
     transform="translate(-22223.949,-15774.656)">
    <circle
       cx="23500"
       cy="16500"
       r="200"
       id="circle90"
       sodipodi:cx="23500"
       sodipodi:cy="16500"
       sodipodi:rx="200"
       sodipodi:ry="200"
       d="m 23700,16500 c 0,110.457 -89.543,200 -200,200 -110.457,0 -200,-89.543 -200,-200 0,-110.457 89.543,-200 200,-200 110.457,0 200,89.543 200,200 z" />
    <polyline
       fill="none;"
       points="23500,17000 23500,16700 23500,16700 "
       id="polyline92" />
  </g>
  <g
     style="fill:#000000;fill-opacity:0;stroke:#000000;stroke-width:50;stroke-linecap:round;stroke-linejoin:round;stroke-opacity:1"
     id="g94"
     transform="translate(-22223.949,-15774.656)">
    <path
       d="m 23100,15800 100,300 100,-300"
       id="path96"
       inkscape:connector-curvature="0" />
    <path
       d="m 23570,16070 -10,20 -40,10 -30,0 -50,-10 -20,-30 -20,-30 -10,-60 0,-40 10,-60 20,-30 20,-20 50,-20 30,0 40,20 10,10"
       id="path98"
       inkscape:connector-curvature="0" />
    <path
       d="m 23870,16070 -10,20 -40,10 -30,0 -50,-10 -20,-30 -20,-30 -10,-60 0,-40 10,-60 20,-30 20,-20 50,-20 30,0 40,20 10,10"
       id="path100"
       inkscape:connector-curvature="0" />
  </g>
  <g
     style="fill:#000000;fill-opacity:0;stroke:#000000;stroke-width:150;stroke-linecap:round;stroke-linejoin:round;stroke-opacity:1"
     id="g102"
     transform="translate(-22223.949,-15774.656)">
    <path
       d="m 30000,22500 1000,0"
       id="path104"
       inkscape:connector-curvature="0" />
  </g>
</svg>
