<svg xmlns="http://www.w3.org/2000/svg" height="89.537" width="104.18" version="1.1">
<g transform="translate(-114.36064,-72.340675)" stroke-linecap="butt" stroke-miterlimit="4" stroke-dasharray="none">
<path d="m190,108.79c0,16.174-13.112,29.286-29.286,29.286s-29.286-13.112-29.286-29.286,13.112-29.286,29.286-29.286,29.286,13.112,29.286,29.286z" stroke="#0b0b0b" stroke-width="1.24300003" fill="#000"/>
<path d="m265.71,118.08c17.358,0,31.429,14.071,31.429,31.429s-14.071,31.429-31.429,31.429" transform="matrix(1.0930079,0,0,1.0889028,-129.71354,-53.711617)" stroke="#0b0b0b" stroke-width="2.78930306" fill="none"/>
<path stroke-linejoin="miter" d="m195.97,108.56,13.94,0,0,42.857-4.6712,0.0154,5.2103,6.9448,4.59-6.8185-5.0862-0.12627" stroke="#000" stroke-width="3" fill="none"/>
<path stroke-linejoin="miter" d="m116.86,108.47,13.94,0" stroke="#000" stroke-width="3" fill="none"/>
</g>
</svg>