<svg xmlns="http://www.w3.org/2000/svg" height="130.63" width="157.32" version="1.1" viewBox="0 0 147.48463 122.46141">
<g stroke="#000" transform="translate(1.8761 1.8749)">
<path stroke-linejoin="round" d="m0.51076 33.691s2.5134-9.7392 3.9585-12.127c1.4452-2.387 6.2837-3.895 6.2837-3.895l80.523-16.788s3.8654-1.1996 6.709-0.31105c2.8435 0.88864 5.9536 5.2428 5.9536 5.2428l36.69 59.169s3.016 3.3931 3.016 6.0321-0.62835 14.326-0.62835 14.326 1.2567 2.5133-0.87967 4.7754c-2.1363 2.262-77.159 23.248-77.159 23.248l-17.216 4.9011s-6.409 1.131-12.441-0.62834c-6.0321-1.7593-9.2994-10.305-9.2994-10.305l-24.758-68.486s-0.50264-1.3823-1.0055-3.0159c-0.50264-1.6337 0.25132-2.1364 0.25132-2.1364z" stroke-linecap="round" stroke-width=".17593"/>
<path stroke-linejoin="round" d="m28.911 92.503-24.63-66.854s-0.87967-2.0107 0.12579-4.2727c1.0053-2.262 7.0374-4.0213 7.0374-4.0213l80.05-16.714s4.5867-1.152 6.786-0.1257c3.77 1.7593 5.278 4.7754 5.278 4.7754l38.45 61.325s1.8718 3.8081 0.62834 7.2887c-1.4765 4.1328-97.266 29.155-97.266 29.155s-4.7753 1.0053-8.671-0.62834c-3.8957-1.6337-7.7914-9.9278-7.7914-9.9278z" stroke-linecap="round" stroke-width=".17593" fill="#333"/>
<text style="word-spacing:0px;letter-spacing:0px" xml:space="preserve" transform="rotate(-15.973)" line-height="1.25" font-size="37.5px" y="95.934654" x="28.744555" font-family="sans-serif" fill="#000000"><tspan style="font-variant-numeric:normal;font-variant-ligatures:normal;font-variant-caps:normal;font-feature-settings:normal" font-family="sans-serif" font-size="80px" y="95.934654" x="28.744555" stroke-width=".9375" fill="#f6f1f9">@name_i</tspan></text>
</g>
</svg>
