<?xml version="1.0" encoding="UTF-8" standalone="no"?>
<svg
   xmlns:dc="http://purl.org/dc/elements/1.1/"
   xmlns:cc="http://creativecommons.org/ns#"
   xmlns:rdf="http://www.w3.org/1999/02/22-rdf-syntax-ns#"
   xmlns:svg="http://www.w3.org/2000/svg"
   xmlns="http://www.w3.org/2000/svg"
   xmlns:sodipodi="http://sodipodi.sourceforge.net/DTD/sodipodi-0.dtd"
   xmlns:inkscape="http://www.inkscape.org/namespaces/inkscape"
   width="157.31694"
   height="130.6255"
   viewBox="0 0 147.48463 122.46141"
   version="1.1"
   id="svg10"
   sodipodi:docname="tecla_ext.svg"
   inkscape:version="0.92.1 r15371">
  <metadata
     id="metadata16">
    <rdf:RDF>
      <cc:Work
         rdf:about="">
        <dc:format>image/svg+xml</dc:format>
        <dc:type
           rdf:resource="http://purl.org/dc/dcmitype/StillImage" />
        <dc:title></dc:title>
      </cc:Work>
    </rdf:RDF>
  </metadata>
  <defs
     id="defs14" />
  <sodipodi:namedview
     pagecolor="#ffffff"
     bordercolor="#666666"
     borderopacity="1"
     objecttolerance="10"
     gridtolerance="10"
     guidetolerance="10"
     inkscape:pageopacity="0"
     inkscape:pageshadow="2"
     inkscape:window-width="1920"
     inkscape:window-height="1016"
     id="namedview12"
     showgrid="false"
     fit-margin-top="2"
     fit-margin-left="2"
     fit-margin-right="2"
     fit-margin-bottom="2"
     inkscape:zoom="1.4142136"
     inkscape:cx="-95.219536"
     inkscape:cy="-120.12148"
     inkscape:window-x="0"
     inkscape:window-y="27"
     inkscape:window-maximized="1"
     inkscape:current-layer="g8" />
  <g
     id="g8"
     style="stroke:#000000"
     transform="translate(1.8761315,1.8749009)">
    <path
       d="m 0.5107596,33.691248 c 0,0 2.5133911,-9.739171 3.9585118,-12.126857 C 5.91448,19.176705 10.752661,17.668688 10.752661,17.668688 L 91.276355,0.88081526 c 0,0 3.865443,-1.199605 6.708974,-0.31105105 2.843531,0.88864189 5.953601,5.24282889 5.953601,5.24282889 L 140.6295,64.982316 c 0,0 3.01603,3.39306 3.01603,6.032068 0,2.639008 -0.62835,14.32603 -0.62835,14.32603 0,0 1.2567,2.513303 -0.87967,4.775373 -2.13627,2.261981 -77.159483,23.248343 -77.159483,23.248343 l -17.216448,4.90107 c 0,0 -6.409006,1.13099 -12.440986,-0.62834 -6.032069,-1.75934 -9.299424,-10.30471 -9.299424,-10.30471 L 1.2648121,38.843559 c 0,0 -0.50264301,-1.382312 -1.00546198,-3.015946 -0.50264302,-1.633722 0.25132152,-2.136365 0.25132152,-2.136365 z"
       id="path2"
       inkscape:connector-curvature="0"
       style="stroke-width:0.17593385;stroke-linecap:round;stroke-linejoin:round" />
    <path
       d="M 28.911498,92.503473 4.2807582,25.648608 c 0,0 -0.8796692,-2.010748 0.1257927,-4.27273 1.0052861,-2.261982 7.0373541,-4.02132 7.0373541,-4.02132 L 91.493722,0.64084148 c 0,0 4.586683,-1.15201489 6.786033,-0.12570474 3.769995,1.75933856 5.278015,4.77537266 5.278015,4.77537266 L 142.0119,66.616038 c 0,0 1.87176,3.808088 0.62834,7.288675 -1.47652,4.132775 -97.266347,29.154787 -97.266347,29.154787 0,0 -4.775285,1.00529 -8.670988,-0.62834 -3.895704,-1.63373 -7.791407,-9.927775 -7.791407,-9.927775 z"
       id="path4"
       inkscape:connector-curvature="0"
       style="fill:#333333;stroke-width:0.17593385;stroke-linecap:round;stroke-linejoin:round" />
    <text
       xml:space="preserve"
       style="font-style:normal;font-weight:normal;font-size:37.5px;line-height:1.25;font-family:sans-serif;letter-spacing:0px;word-spacing:0px;fill:#000000;fill-opacity:1;stroke:none;stroke-width:0.9375"
       x="28.744555"
       y="95.934654"
       id="text4503"
       transform="rotate(-15.972576)"><tspan
         sodipodi:role="line"
         id="tspan4501"
         x="28.744555"
         y="95.934654"
         style="font-style:normal;font-variant:normal;font-weight:normal;font-stretch:normal;font-size:80px;font-family:sans-serif;-inkscape-font-specification:'sans-serif, Normal';font-variant-ligatures:normal;font-variant-caps:normal;font-variant-numeric:normal;font-feature-settings:normal;text-align:start;writing-mode:lr-tb;text-anchor:start;fill:#f6f1f9;fill-opacity:1;stroke-width:0.9375">1</tspan></text>
  </g>
</svg>
