<?xml version="1.0" encoding="UTF-8" standalone="no"?>
<svg
   xmlns:dc="http://purl.org/dc/elements/1.1/"
   xmlns:cc="http://creativecommons.org/ns#"
   xmlns:rdf="http://www.w3.org/1999/02/22-rdf-syntax-ns#"
   xmlns:svg="http://www.w3.org/2000/svg"
   xmlns="http://www.w3.org/2000/svg"
   xmlns:sodipodi="http://sodipodi.sourceforge.net/DTD/sodipodi-0.dtd"
   xmlns:inkscape="http://www.inkscape.org/namespaces/inkscape"
   height="51.744"
   width="101.14"
   version="1"
   id="svg2"
   inkscape:version="0.48.5 r10040"
   sodipodi:docname="NOR.svg">
  <defs
     id="defs16" />
  <sodipodi:namedview
     pagecolor="#ffffff"
     bordercolor="#666666"
     borderopacity="1"
     objecttolerance="10"
     gridtolerance="10"
     guidetolerance="10"
     inkscape:pageopacity="0"
     inkscape:pageshadow="2"
     inkscape:window-width="1912"
     inkscape:window-height="1025"
     id="namedview14"
     showgrid="false"
     inkscape:zoom="12.192943"
     inkscape:cx="51.033945"
     inkscape:cy="25.872"
     inkscape:window-x="0"
     inkscape:window-y="27"
     inkscape:window-maximized="1"
     inkscape:current-layer="svg2" />
  <metadata
     id="metadata4">
    <rdf:RDF>
      <cc:Work
         rdf:about="">
        <dc:format>image/svg+xml</dc:format>
        <dc:type
           rdf:resource="http://purl.org/dc/dcmitype/StillImage" />
        <dc:title></dc:title>
      </cc:Work>
    </rdf:RDF>
  </metadata>
  <path
     stroke-linejoin="round"
     d="m46.271,50.244-24.022,0s8.0074-11.225,8.2029-24.813c0.196-13.587-8.397-23.827-8.397-23.827l24.361-0.1039c12.256,0.514,27.417,14.102,32.47,24.72-8.603,17.813-24.319,23.694-32.615,24.024z"
     stroke="#000"
     stroke-linecap="round"
     stroke-width="3"
     fill="none"
     id="path6" />
  <path
     d="m 1.0142,12.924 26.284,0 m -26.066,25.828 24.874,0 m 63.286905,-12.212 10.731095,0"
     id="path8"
     inkscape:connector-curvature="0"
     style="fill:none;stroke:#000000;stroke-width:2;stroke-linecap:round"
     sodipodi:nodetypes="cccccc" />
  <text
     style="font-size:14.96766663px;font-style:normal;font-weight:normal;line-height:125%;letter-spacing:0px;word-spacing:0px;fill:#0000ff;font-family:sans-serif"
     font-weight="normal"
     xml:space="preserve"
     font-size="17.5px"
     font-style="normal"
     y="32.492512"
     x="31.979864"
     line-height="125%"
     id="text10"
     sodipodi:linespacing="125%"
     transform="scale(1.0370454,0.96427796)"><tspan
       font-weight="bold"
       font-style="normal"
       font-stretch="normal"
       font-variant="normal"
       y="32.492512"
       x="31.979864"
       id="tspan12"
       style="font-style:normal;font-variant:normal;font-weight:bold;font-stretch:normal;font-family:sans-serif">NOR</tspan></text>
  <path
     inkscape:connector-curvature="0"
     d="m 84.684025,31.826943 c -2.9,0 -5.3,-2.4 -5.3,-5.3 0,-2.9 2.4,-5.3 5.3,-5.3 2.9,0 5.300003,2.4 5.300003,5.3 0,2.9 -2.400003,5.3 -5.300003,5.3 z m 0,-8.6 c -1.8,0 -3.3,1.5 -3.3,3.3 0,1.8 1.5,3.3 3.3,3.3 1.8,0 3.3,-1.5 3.3,-3.3 0,-1.8 -1.5,-3.3 -3.3,-3.3 z"
     id="path3018" />
</svg>
